PathFileType	4	(X/Y/Z)	s08c0202.trc
DataRate	CameraRate	NumFrames	NumMarkers	Units	OrigDataRate	OrigDataStartFrame	OrigNumFrames
200	200	4	50	mm	200	1500	2000
Frame#	Time	racr			lacr			c7			jug			rlel			rdr			llel			ldr			s2			lic			ric			lasi			rasi			rpsi			lpsi			rgt			lgt			rth1			rth2			rth3			rth4			rlfc			rmfc			rsh1			rsh2			rsh3			rsh4			rlmal			rmmal			rcal			rtoe			rmt5			lth1			lth2			lth4			lth3			llfc			lmfc			llmal			lmmal			lcal			lmt5			lsh1			lsh2			lsh3			lsh4			ltoe			SBIKE			LBIKE			RBIKE			
		X1	Y1	Z1	X2	Y2	Z2	X3	Y3	Z3	X4	Y4	Z4	X5	Y5	Z5	X6	Y6	Z6	X7	Y7	Z7	X8	Y8	Z8	X9	Y9	Z9	X10	Y10	Z10	X11	Y11	Z11	X12	Y12	Z12	X13	Y13	Z13	X14	Y14	Z14	X15	Y15	Z15	X16	Y16	Z16	X17	Y17	Z17	X18	Y18	Z18	X19	Y19	Z19	X20	Y20	Z20	X21	Y21	Z21	X22	Y22	Z22	X23	Y23	Z23	X24	Y24	Z24	X25	Y25	Z25	X26	Y26	Z26	X27	Y27	Z27	X28	Y28	Z28	X29	Y29	Z29	X30	Y30	Z30	X31	Y31	Z31	X32	Y32	Z32	X33	Y33	Z33	X34	Y34	Z34	X35	Y35	Z35	X36	Y36	Z36	X37	Y37	Z37	X38	Y38	Z38	X39	Y39	Z39	X40	Y40	Z40	X41	Y41	Z41	X42	Y42	Z42	X43	Y43	Z43	X44	Y44	Z44	X45	Y45	Z45	X46	Y46	Z46	X47	Y47	Z47	X48	Y48	Z48	X49	Y49	Z49	X50	Y50	Z50	
1500	7.5000	547.346022	1352.432044	-97.839607	510.053914	1308.718462	-456.384254	517.438022	1424.600236	-283.758878	472.560841	1269.257978	-264.104438	563.963274	1119.920451	37.777821	759.788479	921.997603	-66.645922	524.996183	1042.812484	-544.991749	764.100606	933.804823	-434.321563	-16.808426	1207.959477	-188.548630	116.088611	1217.906337	-348.162491	161.437624	1197.644526	-39.138129	156.337939	1182.714810	-314.537179	175.546868	1133.123756	-69.389008	19.307228	1242.944274	-127.272778	5.447132	1256.064078	-222.698939	62.981727	1075.240898	-19.094153	105.250851	1148.756112	-387.612008	125.991246	913.898674	-10.157369	174.326484	838.853335	-12.161299	179.383058	753.034113	-30.759395	209.618640	851.120504	-18.780898	222.130865	645.127559	-52.470957	200.354358	631.537686	-160.963738	182.981455	518.850233	-21.055629	206.296223	434.277275	-39.052303	183.278965	350.911567	-47.660210	235.257007	438.427585	-67.163864	178.207430	228.456168	-56.199190	194.823107	251.612148	-143.681001	104.232201	203.597638	-104.322822	401.912607	167.218291	-104.532802	309.536945	143.373127	-38.535838	210.224293	1085.678438	-385.245926	296.863625	1073.455279	-380.203801	309.323684	1102.064571	-359.197370	366.989791	1019.658309	-388.414047	465.888300	932.303325	-366.344507	466.632856	895.939901	-258.291494	197.449585	618.432308	-394.469432	229.382254	617.316235	-312.265035	121.705789	620.410510	-358.102821	285.033895	482.809154	-420.944142	398.355725	838.353596	-392.840660	356.460664	762.953542	-385.257569	283.244667	714.497800	-391.292715	376.827863	745.410495	-357.263790	371.622478	474.749491	-351.437186	-145.054619	937.463897	-222.184721	10.713074	81.174846	-426.373747	10.831446	79.936453	-27.932236	
1501	7.5050	548.297300	1352.386749	-99.990156	509.613570	1309.196683	-458.319251	517.537807	1424.248926	-285.577021	472.534055	1269.008399	-265.820823	564.947191	1120.104083	36.087064	760.729704	922.286325	-67.221846	524.938996	1042.863148	-545.625045	764.059095	933.969953	-434.855604	-16.466552	1209.601672	-188.729698	115.950461	1219.305632	-348.162086	161.543096	1198.369680	-39.614032	156.244420	1183.464569	-315.460113	175.207259	1134.032434	-69.597263	17.695677	1245.283806	-121.905899	5.548408	1257.800113	-222.732058	62.409743	1076.391353	-19.445185	105.082677	1150.648242	-387.635068	124.204279	914.879686	-10.157983	172.291399	839.570588	-11.971951	177.266106	754.113802	-31.643922	207.715557	851.794729	-17.929985	219.957560	646.194562	-53.113297	198.228488	633.634055	-162.700726	179.272577	520.378436	-21.874991	200.627127	435.346291	-40.049557	176.511410	352.392441	-48.265509	230.533785	438.774944	-67.579885	169.154592	229.932780	-56.594919	186.854546	252.344627	-143.951803	94.995309	206.253425	-104.838476	391.953588	164.522182	-104.223047	299.069707	142.483771	-38.401227	209.702357	1087.084372	-385.460783	296.250474	1075.248575	-380.718063	308.798832	1104.128608	-360.126394	366.698880	1021.774489	-389.065325	466.296879	935.051219	-367.684772	467.754859	899.115920	-259.463598	201.906749	616.859690	-394.839901	233.676530	617.012561	-312.667422	125.863966	615.483059	-358.918277	294.654491	484.326521	-420.551106	400.358094	839.589626	-394.438427	360.317866	765.271791	-389.156320	286.635184	714.466977	-392.312616	379.310724	746.995120	-356.922746	381.499573	480.626478	-351.684920	-145.087811	937.602702	-222.107671	10.671784	81.334291	-426.349009	10.822609	79.964733	-27.904893	
1502	7.5100	549.234157	1352.133579	-101.781226	509.262505	1309.585299	-459.910318	517.696207	1423.765022	-287.191334	472.500187	1268.640452	-267.353506	565.715593	1120.299186	34.575088	761.849126	922.700802	-67.519534	524.919022	1042.979409	-546.253287	763.891720	933.990001	-434.873083	-16.102490	1211.039298	-189.280462	115.965504	1221.121865	-349.022352	161.435496	1199.341503	-39.997543	156.162003	1184.103349	-316.453866	174.681762	1135.125311	-69.874940	19.803944	1249.306853	-112.124317	5.656582	1259.506378	-223.094215	61.762486	1077.899232	-19.823550	104.807594	1151.550781	-387.888622	122.914144	915.876647	-10.549317	171.024427	840.630618	-12.161213	176.424485	755.377185	-32.579238	206.450236	852.837558	-17.249772	219.374565	647.773509	-53.826637	197.729972	635.742738	-164.859743	176.570538	522.389526	-22.759011	196.147099	436.864747	-40.908299	170.314114	354.461211	-48.922015	226.243291	439.627734	-68.243986	160.278176	232.107796	-57.027599	178.451606	254.263926	-144.230657	85.933842	209.546620	-105.315917	381.977812	162.570321	-103.427522	288.515279	142.227944	-38.283852	209.030623	1088.063214	-386.016494	295.562674	1076.250699	-381.139822	308.589579	1106.154036	-363.581119	366.268723	1022.958027	-389.553923	466.371436	936.721718	-369.128553	468.244637	901.227867	-260.640886	206.092461	614.016484	-395.185012	237.772052	615.617713	-312.586014	129.824058	609.473548	-359.578616	304.294191	485.716468	-420.865360	401.214542	839.597711	-396.316309	361.075112	763.382953	-387.287063	288.978872	713.291951	-393.274622	381.494767	747.106596	-358.856090	391.185739	486.096186	-351.907535	-145.111620	937.653764	-222.151766	10.637383	81.366842	-426.359713	10.810615	79.975371	-27.898565	
1503	7.5150	549.988337	1351.807621	-103.452129	509.030683	1309.991313	-461.259901	517.926164	1423.316545	-288.568370	472.353038	1268.343272	-268.779888	566.236133	1120.457463	33.301841	762.889318	923.281847	-67.651516	524.791011	1043.212497	-547.115272	763.617594	933.965999	-434.805915	-17.033071	1212.372698	-189.773620	116.031986	1222.935726	-350.233024	160.694605	1200.571812	-40.594377	156.090269	1184.634230	-317.515346	173.961062	1136.481184	-70.118733	19.693619	1250.928747	-112.295769	5.688354	1261.171994	-223.814528	60.875591	1079.365058	-20.139899	104.287076	1151.949843	-388.465780	122.149990	917.054691	-11.196510	170.494611	841.876847	-12.642129	176.621859	756.934512	-34.100314	205.956568	854.234506	-16.804747	220.215839	649.728269	-54.613614	198.832449	639.030368	-166.227309	175.021583	524.922714	-23.663428	192.479439	439.022238	-41.774144	164.737065	357.173243	-49.639111	222.822612	440.959675	-68.881286	151.738527	234.908904	-57.395501	170.816332	256.472866	-144.595640	77.083892	213.814771	-105.883494	372.112115	160.940321	-103.232346	278.132419	142.649377	-38.154640	208.362084	1088.507144	-386.985633	294.925893	1076.797241	-382.403911	307.901971	1107.142511	-365.860633	365.797291	1023.256129	-390.063133	466.059509	937.243244	-370.591485	468.195863	902.084245	-262.178094	210.167889	609.613941	-395.407299	241.697099	612.845330	-312.790771	133.700416	601.986287	-359.945716	313.681867	486.376920	-421.265978	400.981251	838.737640	-397.910682	364.153596	766.718699	-397.513383	290.889574	710.738596	-394.199180	382.654998	746.057478	-359.102454	400.516224	491.057014	-352.457298	-145.152133	937.624848	-222.287896	10.615729	81.364054	-426.375638	10.783298	80.006450	-27.891999	
